<svg width="17" height="18" viewBox="0 0 17 18" fill="none" xmlns="http://www.w3.org/2000/svg">
<g clip-path="url(#clip0_260_972)">
<path d="M1.88889 15.6111H3.23472L12.4667 6.37917L11.1208 5.03333L1.88889 14.2653V15.6111ZM0 17.5V13.4861L12.4667 1.04306C12.6556 0.869907 12.8641 0.736111 13.0924 0.641667C13.3206 0.547222 13.5606 0.5 13.8125 0.5C14.0644 0.5 14.3083 0.547222 14.5444 0.641667C14.7806 0.736111 14.9852 0.877778 15.1583 1.06667L16.4569 2.38889C16.6458 2.56204 16.7836 2.76667 16.8701 3.00278C16.9567 3.23889 17 3.475 17 3.71111C17 3.96296 16.9567 4.20301 16.8701 4.43125C16.7836 4.65949 16.6458 4.86806 16.4569 5.05694L4.01389 17.5H0ZM11.7819 5.71806L11.1208 5.03333L12.4667 6.37917L11.7819 5.71806Z" fill="#3500C7"/>
</g>
<defs>
<clipPath id="clip0_260_972">
<rect width="17" height="18" fill="white"/>
</clipPath>
</defs>
</svg>
